<?xml version="1.0" standalone="no"?>
<!DOCTYPE svg PUBLIC "-//W3C//DTD SVG 20010904//EN"
 "http://www.w3.org/TR/2001/REC-SVG-20010904/DTD/svg10.dtd">
<svg version="1.0" xmlns="http://www.w3.org/2000/svg"
 width="512.000000pt" height="512.000000pt" viewBox="0 0 512.000000 512.000000"
 preserveAspectRatio="xMidYMid meet">
<metadata>
Created by potrace 1.14, written by Peter Selinger 2001-2017
</metadata>
<g transform="translate(0.000000,512.000000) scale(0.100000,-0.100000)"
fill="#000000" stroke="none">
<path d="M2378 5115 c-2 -1 -39 -5 -82 -9 -44 -4 -82 -8 -85 -10 -3 -2 -31 -7
-61 -11 -136 -16 -336 -72 -565 -158 -136 -52 -429 -221 -580 -335 -119 -91
-288 -249 -376 -352 -24 -29 -49 -58 -55 -64 -34 -36 -142 -193 -222 -321 -58
-96 -162 -319 -205 -445 -103 -304 -141 -530 -142 -845 0 -199 7 -290 34 -440
59 -335 176 -641 355 -925 53 -85 123 -185 151 -216 6 -6 23 -29 40 -50 93
-122 288 -307 449 -428 366 -274 820 -448 1291 -493 92 -9 403 -9 485 -1 123
14 265 38 345 59 22 6 51 13 64 16 51 9 237 74 269 93 35 21 55 60 50 97 -3
19 8 28 78 61 l80 39 28 -23 c71 -62 178 5 161 100 -5 29 -2 34 53 68 62 40
78 45 84 27 2 -6 24 -13 49 -16 43 -5 48 -2 120 54 79 63 273 254 318 312 14
19 36 46 49 60 90 98 304 462 370 631 66 166 128 374 146 490 3 19 8 49 11 65
24 141 30 218 30 410 0 272 -25 470 -86 679 -12 38 -22 76 -24 85 -5 24 -58
167 -90 241 -62 147 -160 325 -251 456 -46 67 -56 81 -119 159 -97 122 -246
270 -380 378 -266 214 -541 357 -900 467 -94 28 -251 61 -360 75 -28 3 -64 8
-80 11 -34 5 -442 14 -447 9z"/>
</g>
</svg>
